<svg width="128" height="128" viewBox="0 0 128 128" fill="none" xmlns="http://www.w3.org/2000/svg">
<rect width="128" height="128" rx="18" fill="#272727"/>
<rect x="15" y="19" width="44" height="39" rx="5" fill="#37474F"/>
<rect x="71" y="19" width="44" height="39" rx="5" fill="#37474F"/>
<rect x="15" y="73" width="44" height="39" rx="5" fill="#37474F"/>
<rect x="71" y="73" width="44" height="39" rx="5" fill="#37474F"/>
<path d="M46.7754 29.3711L39.627 39.1562L46.7754 49H41.6484L36.9023 42.2324L32.2734 49H27.293L34.4121 39.2441L27.293 29.3711H32.4199L37.166 36.3438L41.6484 29.3711H46.7754Z" fill="white"/>
<path d="M94.8984 83.3711C95.8164 83.3711 96.7148 83.498 97.5938 83.752C98.4727 84.0059 99.2637 84.3965 99.9668 84.9238C100.689 85.4512 101.256 86.1152 101.666 86.916C102.096 87.6973 102.311 88.6348 102.311 89.7285C102.311 90.8809 102.018 91.877 101.432 92.7168C100.865 93.5371 100.113 94.1816 99.1758 94.6504C98.2383 95.0996 97.2227 95.3633 96.1289 95.4414L103.189 103H97.8281L91.002 94.9727V103H86.9297V83.3711H94.8984ZM91.002 87.1797V92.1309C91.4707 92.2871 91.9883 92.4141 92.5547 92.5117C93.1406 92.5898 93.7266 92.6289 94.3125 92.6289C95.4844 92.6289 96.4121 92.3945 97.0957 91.9258C97.7988 91.4375 98.1504 90.7539 98.1504 89.875C98.1504 88.918 97.7793 88.2344 97.0371 87.8242C96.3145 87.3945 95.4258 87.1797 94.3711 87.1797H91.002Z" fill="white"/>
<path d="M94.8984 29.3711C95.8164 29.3711 96.7148 29.5273 97.5938 29.8398C98.4727 30.1523 99.2637 30.6113 99.9668 31.2168C100.689 31.8223 101.256 32.5547 101.666 33.4141C102.096 34.2539 102.311 35.2207 102.311 36.3145C102.311 37.6426 101.969 38.8242 101.285 39.8594C100.621 40.875 99.7324 41.6758 98.6191 42.2617C97.5059 42.8477 96.2949 43.1406 94.9863 43.1406C94.1074 43.1406 93.3164 43.0527 92.6133 42.877C91.9102 42.7012 91.3242 42.4961 90.8555 42.2617V49H86.7832V29.3711H94.8984ZM90.8555 33.1797V38.9805C91.2852 39.1562 91.8027 39.3125 92.4082 39.4492C93.0332 39.5664 93.668 39.625 94.3125 39.625C95.4844 39.625 96.4121 39.3027 97.0957 38.6582C97.7988 37.9941 98.1504 37.2129 98.1504 36.3145C98.1504 35.2793 97.7598 34.498 96.9785 33.9707C96.1973 33.4434 95.2793 33.1797 94.2246 33.1797H90.8555Z" fill="white"/>
<path d="M34.002 82.3711V98.3379H43.8164V102H29.9297V82.3711H34.002Z" fill="white"/>
</svg>
